<svg width="258" height="233" viewBox="0 0 258 233" fill="none" xmlns="http://www.w3.org/2000/svg">
<path d="M116.229 93.7565C121.495 81.0876 132.249 90.6668 142.326 94.4779C147.382 96.3901 159.633 99.7912 163.936 98.6103C167.526 97.6251 173.803 91.9738 171.189 83.8529C168.635 75.9192 161.338 57.2261 149.69 43.6585C145.057 38.2622 135.31 25.3179 133.306 14.6363C132.235 8.93251 134.373 0.661099 138.838 1.59858C143.303 2.53607 143.257 10.3046 142.326 15.4662C140.484 25.6731 133.985 37.6574 143.303 50.3759C158.095 70.5664 153.162 85.6093 158.542 91.0249C162.666 95.1769 166.505 91.9267 174.92 91.9267C183.336 91.9267 187.38 101.409 185.64 106.425C182.636 115.082 174.289 104.587 171.189 106.425C168.088 108.264 163.164 107.459 156.621 108.257C150.078 109.054 129.273 115.084 112.294 117.806C95.315 120.529 69.761 104.572 59.7437 93.7565C49.7264 82.9406 47.496 73.9289 49.2879 91.0249C51.0797 108.121 45.1565 115.084 45.1565 115.084C45.1565 115.084 18.6477 148.598 12.23 155.95C7.09672 161.83 0.558678 171.263 1.02345 177.353C1.06109 177.846 1.7309 179.313 2.74585 178.85C4.86668 177.882 8.87468 175.602 7.18551 173.274C5.49635 170.947 2.22218 176.815 2.74585 180.183C2.9623 181.575 4.95164 182.409 5.17948 182.457C9.93446 183.457 14.2661 175.57 15.7486 172.534C17.4741 169.001 21.3909 165.952 21.3909 165.952C21.3909 165.952 62.8358 136.004 68.8256 130.275C74.8154 124.547 79.8294 130.275 79.8294 130.275C79.8294 130.275 81.3826 131.536 87.9725 139.294C94.5625 147.053 104.995 156.513 114.043 158.174C123.091 159.835 124.128 163.301 129.273 172.534C134.419 181.767 145.285 194.97 148.418 199.692C151.551 204.413 148.418 209.095 148.418 209.095C148.418 209.095 139.687 217.907 136.439 220.721C134.46 222.435 130.985 224.789 130.373 226.902C129.761 229.014 130.559 230.456 132.26 230.456C133.961 230.456 139.285 228.428 135.868 226.902C132.45 225.375 133.058 232 135.868 232C140.489 232 142.96 227.53 145.285 224.874C148.059 221.705 160.618 210.005 163.164 207.06C165.71 204.114 169.57 202.094 165.794 193.395C162.018 184.697 161.124 174.278 169.57 163.301C174.787 156.521 179.566 149.664 180.46 143.887C181.617 136.399 178.522 130.724 184.061 128.95C193.874 125.808 196.761 112.929 202.369 103.828C207.976 94.7276 235.921 84.2558 242.092 80.5321C248.263 76.8083 256.666 74.8681 257.395 66.1676C257.463 65.3592 257.184 64.624 256.824 64.1878C256.464 63.7516 255.942 63.1459 254.113 63.0204C252.494 62.9093 250.655 64.0688 251.102 65.3831C251.55 66.6974 253.14 66.6974 254.311 65.3831C255.306 64.265 255.723 60.9993 255.723 60.3693C255.723 58.9986 254.953 57.7724 253.017 57.4236C252.332 57.3002 251.066 57.2657 250.277 57.4236C248.835 57.712 247.603 59.3956 248.94 60.672C250.277 61.9484 252.476 60.4429 252.741 58.7179C253.006 56.9929 252.77 56.1577 252.019 55.3329C249.801 52.8982 246.868 53.3526 244.241 56.0478C240.014 60.3836 241.284 65.5694 242.941 69.9254C244.351 73.632 248.52 73.5807 249.339 71.1142C250.47 67.7102 245.48 64.1761 240.69 66.1676C235.9 68.159 219.88 74.8681 207.115 75.4018C194.349 75.9356 185.64 82.2381 185.64 82.2381C185.64 82.2381 175.294 88.6882 155.102 89.7217C134.909 90.7552 128.677 79.1382 124.128 71.9179C119.579 64.6976 110.448 49.7545 99.1531 41.5301C91.5863 36.0201 88.573 32.6609 86.7103 29.6933C82.7046 23.3115 86.3837 17.2304 91.276 26.2549C94.5196 32.2383 89.9984 39.2707 86.7103 42.6187C81.3243 48.1028 73.8428 45.862 70.374 44.4863C64.0377 41.9734 59.2355 42.8198 60.6366 46.9318C61.4506 49.3206 59.6075 51.1362 58.2874 50.3759C56.9673 49.6157 57.2027 48.2183 57.8016 47.4672C58.8513 46.1507 61.1439 45.124 62.8358 46.9318C64.5277 48.7396 62.8358 51.7079 60.6366 53.6566C53.1081 51.3748 49.7419 45.1282 49.7419 38.9464C49.7419 32.7646 52.6756 38.0472 58.7275 35.832C64.7795 33.6168 67.2313 24.1447 73.7284 1C77.0702 9.44432 77.0702 9.44432 78.8067 13.5026C80.5432 17.5609 82.3227 21.4516 79.4601 24.956C76.5975 28.4604 68.4597 28.4856 63.5414 23.8047C58.6231 19.1238 58.417 14.1468 64.2032 10.6844C68.5636 8.07513 69.2759 8.37961 65.9027 13.9561C64.2032 16.7657 62.168 16.7657 59.7437 18.0117C56.7221 17.8771 50.5985 17.6594 47.0923 18.7013C42.4299 20.0867 39.259 21.6963 35.78 23.8047C28.3528 23.8047 22.628 24.1047 13.924 23.8047C20.3706 27.3393 23.5691 30.3781 27.5644 34.7928C29.7784 37.2394 31.0863 37.4531 33.6661 35.1374C36.2459 32.8218 37.7198 31.8969 34.2545 30.3781C30.7891 28.8594 25.9606 27.1575 25.9606 27.1575C25.9606 27.1575 31.251 32.5744 32.2082 41.5301C33.1654 50.4858 33.1908 53.4934 37.276 58.5219C37.629 58.9564 38.9819 60.7575 41.6174 60.3693C44.253 59.9811 46.1385 56.7612 44.253 55.3329C42.9323 54.3324 42.5267 54.4356 41.8353 54.4356C41.1439 54.4356 38.66 55.7194 39.8044 57.1206C40.9487 58.5219 43.1763 56.8183 42.9635 55.3329C42.7506 53.8474 42.765 53.8362 42.0395 52.9793C40.6603 51.3504 36.5893 54.3698 36.9749 57.1206C37.3824 60.0284 43.9011 62.1514 43.1417 68.404C42.6701 72.2872 45.8721 76.7236 50.9818 75.4018C56.0916 74.0801 50.0695 69.2006 47.5907 69.2006C50.4446 69.2006 53.8683 67.7102 53.8683 67.7102C53.8683 67.7102 50.1532 74.8681 56.8473 74.8681C63.5414 74.8681 65.4282 70.6404 65.0332 68.404C64.6381 66.1676 62.6475 66.1676 61.811 67.7102C60.9745 69.2528 63.3494 73.4637 70.374 68.404C77.3986 63.3444 80.6171 56.0105 77.8034 51.8692C75.9355 49.1201 73.3062 50.5145 67.812 52.9793C63.4826 54.9216 58.6121 61.7795 56.1619 65.0266C56.8933 64.5915 57.6701 63.0463 58.2874 62.4921C59.1607 61.7081 60.5649 61.0519 61.811 60.3693C65.2479 58.4864 67.4141 59.3471 72.6773 59.3471C61.2082 58.5219 58.7275 61.3828 56.8473 64.1878C56.357 64.9194 55.6403 65.5459 55.1394 66.1676C53.7197 67.9298 52.0808 69.2006 47.0923 69.2006C40.3439 69.2006 32.2082 67.7102 28.7334 72.1166C30.1848 70.3787 33.6367 68.4236 39.9881 68.9903C41.5532 69.1299 43.1256 68.8745 42.9635 68.9903C42.5561 69.2812 37.2841 69.9445 34.8065 73.0288" stroke="#0000FF" stroke-linecap="round" stroke-linejoin="round"/>
</svg>
